<mxfile host="app.diagrams.net" modified="2024-04-28T03:15:49.383Z" agent="Mozilla/5.0 (Macintosh; Intel Mac OS X 10_15_7) AppleWebKit/605.1.15 (KHTML, like Gecko) Version/17.4.1 Safari/605.1.15" version="24.2.1" etag="yQO3odMGNErOerJRGeTp" type="github">
  <diagram name="Page-1" id="k0b15O7BoX57XoeLq1dA">
    <mxGraphModel>
      <root>
        <mxCell id="0" />
        <mxCell id="1" parent="0" />
      </root>
    </mxGraphModel>
  </diagram>
</mxfile>
